<?xml version="1.0" encoding="UTF-8" standalone="no"?>
<!-- Generator: Adobe Illustrator 22.1.0, SVG Export Plug-In . SVG Version: 6.00 Build 0)  -->

<svg
   version="1.1"
   id="Capa_1"
   x="0px"
   y="0px"
   viewBox="0 0 2085.2446 720"
   xml:space="preserve"
   sodipodi:docname="rotoplas_logo.svg"
   width="2085.2446"
   height="720"
   inkscape:version="1.1 (c68e22c387, 2021-05-23)"
   xmlns:inkscape="http://www.inkscape.org/namespaces/inkscape"
   xmlns:sodipodi="http://sodipodi.sourceforge.net/DTD/sodipodi-0.dtd"
   xmlns="http://www.w3.org/2000/svg"
   xmlns:svg="http://www.w3.org/2000/svg"
   xmlns:rdf="http://www.w3.org/1999/02/22-rdf-syntax-ns#"
   xmlns:cc="http://creativecommons.org/ns#"
   xmlns:dc="http://purl.org/dc/elements/1.1/"><defs
   id="defs59" /><sodipodi:namedview
   id="namedview57"
   pagecolor="#ffffff"
   bordercolor="#666666"
   borderopacity="1.0"
   inkscape:pageshadow="2"
   inkscape:pageopacity="0.0"
   inkscape:pagecheckerboard="0"
   showgrid="false"
   fit-margin-top="0"
   fit-margin-left="0"
   fit-margin-right="0"
   fit-margin-bottom="0"
   inkscape:zoom="0.288"
   inkscape:cx="977.43055"
   inkscape:cy="859.375"
   inkscape:window-width="1920"
   inkscape:window-height="1017"
   inkscape:window-x="1912"
   inkscape:window-y="-8"
   inkscape:window-maximized="1"
   inkscape:current-layer="Capa_1" />
<style
   type="text/css"
   id="style2">
	.st0{fill:#00ADEF;}
	.st1{fill:#FFFFFF;}
	.st2{fill:#8BD2F4;}
	.st3{fill:#0081C6;}
</style>
<title
   id="title4">Mesa de trabajo 1</title>
<path
   class="st0"
   d="m 1240.0278,576.66929 -0.8687,-42.99921 c 0,-6.94937 -0.4343,-12.59573 -0.8686,-17.80775 l 8.6867,-1.73735 0.8686,11.29273 h 0.4344 c 2.606,-8.25238 9.5554,-14.76741 17.8077,-16.93909 6.9494,-2.17167 14.3331,2.17168 16.0704,8.68671 0,0.43434 0.4344,0.86867 0.4344,1.30301 2.606,-8.68671 9.5554,-15.63608 18.6764,-17.80776 7.818,-1.73734 15.2017,3.04035 16.9391,10.42406 0,0.43433 0.4343,1.303 0.4343,1.73734 0.8687,3.47468 0.8687,6.94937 1.303,9.98971 l 0.8687,36.04985 -9.9897,2.17168 -0.8687,-35.18118 c 0,-2.60601 -0.4343,-5.21202 -0.8687,-7.81804 -1.303,-6.08069 -4.3433,-9.55538 -10.8583,-8.25237 -7.3837,1.73734 -13.8988,11.72706 -13.4644,25.19146 l 0.8686,31.27215 -9.5554,2.17168 -0.8686,-35.61551 c 0,-2.60601 -0.4344,-4.77769 -0.8687,-7.3837 -0.8687,-4.77769 -3.4747,-9.55538 -10.8584,-8.25238 -7.3837,1.30301 -14.3331,13.03007 -13.8987,26.06013 l 0.8687,30.40349 z"
   id="path6"
   style="stroke-width:4.34335" />
<path
   class="st0"
   d="m 1376.4091,547.13448 c -0.8686,-5.21202 -1.7373,-10.42405 -2.1716,-15.63608 v 0 c -3.9091,13.4644 -10.8584,19.5451 -19.1108,21.28244 -10.424,2.17168 -18.6764,-4.77769 -20.8481,-15.63607 -5.212,-22.58545 8.6867,-45.17089 30.8378,-50.38292 0.4344,0 0.4344,0 0.8687,0 5.212,-1.30301 10.8584,-1.30301 16.0704,-0.86867 l 0.4343,31.70649 c 0,9.12104 1.303,18.67642 3.4747,27.79747 z m -4.3433,-52.12026 c -2.606,0 -4.7777,0 -6.9494,0.43434 -15.2017,3.47468 -23.8884,21.71677 -20.8481,37.78719 1.303,6.51503 5.212,12.59572 12.5957,10.85838 7.3837,-1.73734 16.0705,-14.7674 15.6361,-30.83782 z m 4.3433,-34.3125 -12.5957,20.8481 -7.818,1.73735 8.2523,-19.97944 z"
   id="path8"
   style="stroke-width:4.34335" />
<path
   class="st0"
   d="m 1398.9946,531.93274 c 4.3433,1.30301 9.121,1.73734 13.4644,0.86867 5.6463,-0.43434 9.5554,-5.64636 9.121,-11.29272 v -0.43434 c -0.8686,-4.77769 -3.4747,-6.94937 -10.424,-9.12104 -6.5151,-1.30301 -11.7271,-6.0807 -13.4644,-12.59573 -2.1717,-10.42405 4.7777,-19.97943 17.3734,-22.58545 4.3434,-0.86867 8.6867,-0.86867 13.0301,0.43434 l -1.303,8.25237 c -3.4747,-0.86867 -6.9494,-1.303 -10.8584,-0.43433 -5.2121,0.43433 -9.1211,5.21202 -8.6867,10.42405 v 0.43433 c 0.8686,4.34336 4.3433,6.51504 9.9897,8.25238 7.3837,2.17168 13.03,6.51503 14.333,13.03006 2.6061,12.1614 -6.0806,21.28244 -18.242,24.32279 -5.2121,1.30301 -10.4241,0.86867 -15.2018,-0.86867 z"
   id="path10"
   style="stroke-width:4.34335" />
<path
   class="st0"
   d="m 1468.4883,466.78242 12.5957,30.40348 c 2.606,6.51503 4.3433,10.42405 6.0807,14.76741 h 0.4343 c 0.8687,-3.90902 1.7374,-8.68671 3.0404,-15.63608 l 7.818,-35.61551 10.8584,-2.17168 -12.5957,49.07991 c -2.606,12.1614 -6.9494,24.32279 -13.4644,35.18118 -3.4747,6.08069 -8.6867,10.85838 -14.7674,13.89873 l -4.3434,-8.25237 c 3.4747,-2.17168 6.9494,-4.77769 9.5554,-7.81804 3.909,-4.77769 6.515,-9.98972 8.2524,-15.63608 0.4343,-0.86867 0.4343,-1.73734 0,-2.60601 l -23.4542,-52.55459 z"
   id="path12"
   style="stroke-width:4.34335" />
<path
   class="st0"
   d="m 1543.6283,511.51897 -0.8687,-42.99921 c 0,-6.94937 -0.4343,-12.59573 -0.8686,-17.37342 l 8.6867,-1.73734 0.8686,11.29272 h 0.4344 c 2.606,-8.25237 9.5554,-14.76741 17.8077,-16.50475 6.9494,-2.17168 14.3331,2.17168 16.0704,8.68671 0,0.43434 0.4344,0.86867 0.4344,1.30301 2.606,-8.68671 9.5554,-15.63608 18.6764,-17.80776 7.818,-1.73734 15.2017,3.04035 16.9391,10.42405 0,0.43434 0.4343,1.30301 0.4343,1.73735 0.8687,3.47468 1.303,6.51503 1.303,9.98971 l 0.8687,36.04985 -9.9897,2.17168 -0.8687,-35.18118 c 0,-2.60601 -0.4343,-5.21202 -0.8687,-7.81804 -1.303,-6.08069 -4.3433,-9.55538 -10.8583,-8.25237 -7.3837,1.303 -13.8988,11.72706 -13.4644,25.19146 l 0.8686,31.27215 -9.5554,2.17168 -0.8686,-35.61551 c 0,-2.60601 -0.4344,-4.77769 -0.8687,-7.3837 -0.8687,-4.77769 -3.4747,-9.98972 -10.8584,-8.25238 -7.3837,1.73734 -14.3331,13.03007 -13.8987,26.06013 l 0.8687,30.40348 z"
   id="path14"
   style="stroke-width:4.34335" />
<path
   class="st0"
   d="m 1682.6157,478.50948 c -5.2121,4.34335 -11.7271,7.3837 -18.2421,8.6867 -15.6361,3.47469 -24.3228,-5.64636 -27.3632,-18.67642 -3.909,-17.80776 5.2121,-40.3932 23.8885,-44.30222 11.2927,-2.17168 18.6764,3.04035 20.4138,11.29272 3.4746,15.20174 -13.0301,23.01978 -34.7469,27.36314 0.4343,3.90902 1.303,7.3837 3.4747,10.85838 3.4747,4.7777 9.121,6.51504 14.7674,5.21203 5.6464,-1.30301 10.4241,-3.90902 14.7674,-7.3837 z m -10.8584,-40.82754 c -0.8687,-4.77769 -5.2121,-6.51503 -10.4241,-5.64636 -9.5554,2.17168 -14.7674,13.03006 -15.2017,22.58544 15.6361,-3.04034 27.3631,-7.81804 25.6258,-16.93908 z"
   id="path16"
   style="stroke-width:4.34335" />
<path
   class="st0"
   d="m 1705.2011,415.96517 1.303,60.37263 c 0.4343,9.98971 -0.4343,16.93908 -3.0403,21.28244 -2.6061,4.34335 -6.9494,7.81803 -12.1614,8.68671 -2.1717,0.43433 -4.3434,0.86867 -6.9494,0.86867 l -0.4343,-8.25238 c 1.7373,0 3.0403,0 4.7777,-0.43433 5.212,-1.30301 8.2523,-5.21203 8.2523,-17.80776 l -1.7373,-62.54431 z m -5.212,-9.12105 c -3.0404,0.86867 -6.0807,-1.30301 -6.9494,-4.34335 v -0.43434 c -0.8687,-3.90902 1.7374,-7.3837 5.212,-8.25237 3.0404,-0.86867 6.5151,1.303 7.3837,4.77769 v 0.43433 c 0.8687,3.04035 -1.7373,6.94937 -5.6463,7.81804 0.4343,0 0.4343,0 0,0 z"
   id="path18"
   style="stroke-width:4.34335" />
<path
   class="st0"
   d="m 1772.0888,425.95488 c 3.909,17.80776 -4.7777,39.52453 -24.7572,43.43355 -14.7674,3.04035 -25.1914,-6.0807 -28.2318,-19.11076 -3.909,-19.11076 5.6464,-39.95887 24.3228,-43.86788 16.5048,-3.47469 26.0602,6.94936 28.6662,19.54509 m -42.1306,21.71678 c 2.1717,9.55538 8.6867,15.20174 17.3734,13.4644 11.7271,-2.60602 17.8078,-19.5451 14.7674,-33.44384 -1.303,-6.94936 -6.515,-15.63607 -17.3734,-13.4644 -12.5957,3.04035 -17.8077,19.97944 -14.7674,33.44384"
   id="path20"
   style="stroke-width:4.34335" />
<path
   class="st0"
   d="m 1786.4218,459.83305 -0.8686,-39.09019 c 0,-7.81804 -0.8687,-16.07042 -1.303,-21.28244 l 8.6867,-1.73734 c 0.4343,4.34335 0.8686,8.25237 1.303,13.03006 h 0.4343 c 2.1717,-8.68671 6.9494,-16.07041 14.7674,-17.80775 0.8687,0 1.7374,-0.43434 2.606,-0.43434 v 10.42405 c -0.8686,0 -1.7373,0 -2.606,0.43434 -8.6867,1.73734 -14.3331,13.89873 -13.8987,28.2318 l 0.4343,26.9288 z"
   id="path22"
   style="stroke-width:4.34335" />
<path
   class="st0"
   d="m 1885.8847,438.98495 c -0.8687,-5.21203 -1.7374,-10.42406 -1.7374,-15.20175 h -0.4343 c -3.909,13.4644 -10.8584,19.5451 -19.1108,21.28244 -10.424,2.17168 -18.6764,-4.77769 -20.8481,-15.63607 -5.212,-22.58545 8.6867,-45.17089 31.2722,-50.38292 h 0.4343 c 5.212,-1.30301 10.8584,-1.30301 16.0704,-0.86867 l 0.4344,31.70649 c 0,9.12104 1.303,18.67642 3.4746,27.79747 z m -4.3434,-52.5546 c -2.606,0 -4.7777,0 -7.3837,0.86867 -15.2017,3.04035 -23.8884,21.71678 -20.8481,37.78719 1.303,6.51503 5.212,12.16139 12.5957,10.85839 7.3837,-1.30301 16.0704,-14.76741 15.6361,-30.83782 z"
   id="path24"
   style="stroke-width:4.34335" />
<path
   class="st0"
   d="m 1913.6821,446.80298 c 5.2121,1.73735 10.8584,1.73735 16.5048,0.43434 9.9897,-2.17168 16.5047,-8.68671 16.5047,-25.19146 v -9.12104 h -0.4343 c -2.606,8.25237 -9.1211,14.7674 -17.8078,16.50475 -11.727,2.60601 -19.9794,-6.0807 -22.1511,-16.50475 -4.3433,-19.97943 6.0807,-42.56488 28.6662,-47.34257 6.515,-1.30301 13.03,-1.30301 19.5451,0 l 1.303,50.38292 c 0,12.59572 -1.303,22.15111 -6.5151,28.66614 -4.7776,5.64636 -11.727,9.55538 -19.1107,10.85838 -6.0807,1.30301 -12.5957,1.30301 -18.2421,-0.43433 z m 31.2722,-72.53402 c -3.4747,-0.86867 -6.9494,-0.86867 -9.9897,0 -14.7674,3.04035 -21.2825,20.41377 -18.6765,35.18117 1.3031,6.51504 5.2121,13.4644 14.3331,11.72706 9.1211,-1.73734 15.2018,-14.33307 14.7674,-26.49446 z"
   id="path26"
   style="stroke-width:4.34335" />
<path
   class="st0"
   d="m 2018.357,349.51184 0.8687,42.99921 c 0,6.94937 0.4343,12.59573 0.8686,17.80775 l -9.121,1.73735 -0.8687,-11.29273 h -0.4343 c -3.0404,8.25238 -9.5554,14.33307 -17.8078,16.50475 -7.3837,1.73734 -16.0704,-0.43433 -19.1107,-13.4644 -0.4344,-3.47468 -0.8687,-6.51503 -0.8687,-9.98971 l -0.8687,-34.31251 9.9897,-2.17167 0.8687,33.87816 c 0,3.04035 0,5.64636 0.8687,8.68671 1.303,6.0807 4.7777,9.55538 11.727,8.25238 6.9494,-1.30301 14.7674,-12.1614 14.3331,-25.19146 l -0.8687,-31.27216 z"
   id="path28"
   style="stroke-width:4.34335" />
<path
   class="st0"
   d="m 2075.6893,398.15741 c -0.8687,-5.21202 -1.7374,-10.42405 -1.7374,-15.63608 h -0.4343 c -3.909,13.4644 -10.8584,19.5451 -19.1108,21.28244 -10.424,2.17168 -18.6764,-4.77769 -20.8481,-15.63608 -5.212,-22.58544 8.6867,-44.73655 31.2722,-49.94858 h 0.4343 c 5.212,-1.303 10.8584,-1.73734 16.0704,-1.303 l 0.4344,31.70649 c 0,9.12104 1.303,18.67642 3.4746,27.79747 z m -4.3434,-52.12026 c -2.606,0 -4.7777,0 -7.3837,0.86867 -15.2017,3.47469 -23.8884,21.71678 -20.8481,37.78719 1.303,6.51503 5.212,12.16139 12.5957,10.85839 7.3837,-1.30301 16.0704,-14.76741 15.6361,-30.83782 z"
   id="path30"
   style="stroke-width:4.34335" />
<path
   class="st1"
   d="m 1891.9654,268.2911 c 5.212,0 9.9897,1.30301 14.333,3.90902 4.7777,2.60601 8.6867,6.0807 10.8584,10.85839 2.606,4.34335 3.909,9.55538 3.909,14.7674 0,5.21203 -1.303,9.98972 -3.909,14.33308 -2.606,4.77769 -6.0807,8.25237 -10.8584,10.85838 -9.121,5.21203 -19.9794,5.21203 -29.1004,0 -4.7777,-2.60601 -8.2524,-6.08069 -10.8584,-10.85838 -2.606,-4.34336 -3.9091,-9.55539 -3.9091,-14.33308 0,-5.21202 1.3031,-10.42405 3.9091,-14.7674 2.606,-4.77769 6.515,-8.25238 10.8584,-10.85839 4.7776,-2.60601 9.5553,-3.90902 14.7674,-3.90902 m 0,4.77769 c -4.3434,0 -8.2524,1.30301 -12.1614,3.04035 -3.9091,2.17168 -6.9494,5.21203 -9.1211,9.12105 -2.1717,3.90902 -3.4747,7.81803 -3.4747,12.16139 0,4.34335 1.303,8.25237 3.4747,12.16139 2.1717,3.90902 5.212,6.94937 9.1211,9.12105 3.4746,2.17168 7.818,3.47468 12.1614,3.47468 4.3433,0 8.2523,-1.303 12.1614,-3.47468 3.909,-2.17168 6.9493,-5.21203 9.121,-9.12105 2.1717,-3.47468 3.0403,-7.81804 3.0403,-12.16139 0,-4.34336 -1.303,-8.68671 -3.4746,-12.16139 -2.1717,-3.90902 -5.2121,-6.94937 -9.1211,-9.12105 -3.4747,-1.73734 -7.3837,-3.04035 -11.727,-3.04035 m -13.0301,40.3932 V 281.7555 h 10.8584 c 2.606,0 5.212,0 8.2524,0.86867 1.7373,0.43434 3.0403,1.73734 3.909,3.04035 0.8686,1.30301 1.303,3.04035 1.7373,4.77769 0,2.17168 -0.8687,4.34336 -2.606,6.0807 -1.7373,1.73734 -3.909,2.60601 -6.515,3.04035 0.8686,0.43433 1.7373,0.86867 2.606,1.73734 1.7373,1.73734 3.4747,3.90902 4.7777,6.0807 l 3.909,6.08069 h -6.0807 l -3.0404,-5.21202 c -1.303,-2.60602 -3.0403,-5.21203 -5.212,-7.38371 -1.303,-0.86867 -2.606,-1.303 -4.3433,-1.303 h -3.0404 v 13.4644 z m 5.212,-17.37342 h 6.0807 c 2.1717,0.43434 4.3434,0 6.0807,-1.303 0.8687,-0.86867 1.7374,-2.17168 1.7374,-3.47469 0,-0.86867 -0.4344,-1.73734 -0.8687,-2.60601 -0.4344,-0.86867 -1.303,-1.30301 -2.1717,-1.73734 -1.7373,-0.43434 -3.4747,-0.43434 -5.212,-0.43434 h -5.6464 z"
   id="path32"
   style="stroke-width:4.34335" />
<path
   class="st1"
   d="m 1627.8894,310.85598 v -81.22074 c 0,-22.58544 -4.7777,-39.95886 -13.8987,-52.12025 -8.2524,-11.72706 -20.8482,-20.41377 -34.7469,-23.88846 -16.0704,-3.47468 -32.1408,-3.47468 -48.2112,0.43434 -24.7571,5.21203 -51.2516,17.37342 -78.6147,36.04985 v 64.28165 c 19.545,-19.5451 39.0901,-31.70649 57.7666,-37.35285 13.4644,-3.90902 26.9288,-6.0807 33.4438,-3.04035 10.4241,4.77769 9.9897,12.59573 9.9897,22.15111 -83.3924,28.2318 -125.0886,66.45332 -125.0886,114.66456 0,21.28244 7.3837,38.22153 22.1511,49.94858 13.8987,11.72706 32.5752,16.07042 50.3829,11.72706 9.9897,-2.17168 19.5451,-6.51503 27.7975,-13.03006 9.5554,-7.38371 18.2421,-16.50475 25.1915,-26.49447 0,22.15111 11.727,20.84811 16.939,19.5451 5.2121,-1.30301 71.6654,-15.20174 71.6654,-15.20174 -9.5554,-3.04035 -16.9391,-12.59573 -14.7674,-66.45333 m -73.837,-3.47468 c 0.4343,9.55538 -2.1717,19.11076 -6.5151,27.79747 -3.909,7.3837 -10.424,12.59573 -18.6764,14.33307 -6.515,1.73734 -13.4644,-0.43434 -18.2421,-4.77769 -5.212,-5.21203 -8.2524,-12.1614 -7.818,-19.11076 0,-22.15111 16.9391,-38.65586 50.8172,-48.64558 z"
   id="path34"
   style="fill:#000000;stroke-width:4.34335" />
<path
   class="st1"
   d="m 843.47951,362.5419 -36.48418,7.81804 v 99.02849 c 0,15.20174 6.08069,21.71677 18.24209,19.11076 6.94936,-1.73734 13.4644,-5.64636 18.24209,-10.42405 v 65.58466 c -14.33308,8.25237 -29.53482,13.89873 -45.60523,17.37342 -25.19146,5.21202 -43.43355,3.04035 -55.16061,-6.0807 -11.72705,-9.12105 -17.80775,-26.9288 -17.80775,-51.68592 V 388.60203 l -29.53481,6.0807 v -60.80697 c 0,0 24.32278,-5.21203 29.53481,-6.0807 -3.04035,-57.76662 12.16139,-62.54431 29.53481,-66.45333 l 48.64558,-9.12104 v 59.50396 l 39.95886,-8.25237 z"
   id="path36"
   style="fill:#000000;stroke-width:4.34335" />
<path
   class="st1"
   d="m 1368.1568,114.53634 c -7.3837,2.17168 -36.4842,13.89874 -36.9185,64.71599 v 263.64164 l 43.8678,-9.12105 c 7.8181,-2.17168 36.4842,-13.89873 36.9186,-64.28165 V 105.4153 Z"
   id="path38"
   style="fill:#000000;stroke-width:4.34335" />
<path
   class="st1"
   d="m 1290.4107,241.3623 c -15.2017,-20.8481 -35.6155,-29.10048 -61.2413,-23.45411 -10.8584,2.17167 -21.2824,7.3837 -29.9691,14.33307 -8.6867,6.94936 -16.0704,15.63607 -21.7168,25.19145 0,-11.29272 1.303,-22.58544 -10.8584,-20.8481 -13.0301,2.60601 -72.9684,15.63608 -72.9684,15.63608 2.1717,3.04035 3.9091,6.94937 3.9091,10.85839 0.4343,6.94936 0,342.69069 0,342.69069 l 49.5142,-10.42405 c 17.8078,-4.77769 31.7065,-7.3837 31.7065,-48.21124 v -84.69542 c 6.515,4.77769 13.8987,7.81804 21.7168,9.98972 7.818,1.73734 16.0704,1.73734 23.8884,0 17.8078,-3.90902 33.8782,-13.4644 45.6052,-27.36314 13.8988,-15.63607 24.7572,-33.87816 31.7065,-53.42326 7.8181,-21.71678 11.7271,-45.17089 11.7271,-68.19067 0,-33.44383 -7.818,-60.80697 -23.0198,-82.08941 m -67.7563,146.37106 c -5.212,11.72706 -13.0301,18.24209 -22.5855,20.41377 -3.909,0.86867 -8.2523,0.86867 -12.1614,-0.86867 -3.909,-1.73735 -7.3837,-4.34336 -10.424,-7.81804 v -58.63529 c -0.4343,-11.72706 1.7373,-23.01978 6.515,-33.87817 3.4747,-7.3837 10.4241,-13.03006 18.6764,-14.76741 8.6868,-1.73734 15.2018,1.73735 20.4138,10.42405 5.212,8.68671 7.8181,22.15111 7.8181,40.82754 0.4343,15.20174 -2.1717,30.40348 -8.2524,44.30222"
   id="path40"
   style="fill:#000000;stroke-width:4.34335" />
<path
   class="st1"
   d="m 1805.5326,326.49206 c -19.1108,20.41376 -44.3022,33.87816 -72.0997,39.09019 -26.4945,5.21203 -53.8576,3.47468 -79.4834,-4.34335 v -73.83704 c 25.6258,16.07042 48.2113,21.71678 66.8877,17.80776 6.9493,-1.30301 13.4644,-4.77769 18.6764,-9.55538 4.7777,-4.34336 7.818,-10.42405 7.818,-16.93909 0,-4.34335 -2.1716,-8.68671 -6.0807,-10.85838 -7.3837,-3.47469 -15.2017,-5.64636 -23.0197,-6.51504 -26.9288,-4.77769 -44.3023,-12.59572 -52.5546,-23.01978 -7.3837,-9.98971 -11.7271,-21.71677 -11.7271,-34.3125 0,-22.58544 9.1211,-42.56488 27.7975,-59.9383 18.6764,-17.80775 42.1305,-29.53481 67.322,-34.74683 22.5854,-4.77769 46.0395,-4.34336 68.1907,1.73734 v 71.66535 c -18.6765,-12.16139 -36.4842,-16.50475 -53.8576,-13.03006 -6.5151,0.86867 -12.1614,3.47468 -17.3735,7.3837 -3.909,3.04035 -6.0807,7.81804 -5.6463,13.03007 0,7.3837 8.2523,11.72705 25.1914,13.4644 45.1709,5.64636 67.7564,24.75712 68.1907,58.20095 0,22.58544 -9.121,44.30222 -28.2318,64.71599"
   id="path42"
   style="fill:#000000;stroke-width:4.34335" />
<path
   class="st1"
   d="m 661.92727,368.6226 c -21.28243,-17.37342 -48.64557,-23.01978 -82.0894,-15.63608 -32.57516,6.51503 -61.67564,25.19146 -81.22074,52.55459 -20.8481,28.66615 -31.70649,63.41298 -30.83782,98.59416 0,36.48418 9.98972,64.28165 29.53482,83.82675 19.54509,19.54509 46.90823,25.62579 82.0894,17.80775 33.87817,-6.51503 63.41298,-25.62579 83.39242,-53.42326 20.8481,-28.66614 31.70649,-62.97865 30.83781,-98.59416 0,-39.09019 -10.42405,-67.75633 -31.70649,-85.12975 m -59.06962,153.75476 c -4.77769,11.72706 -12.59573,18.67642 -22.58545,20.8481 -9.12104,2.60601 -18.67642,-2.17168 -22.15111,-11.29272 -5.21202,-9.55538 -7.3837,-25.19146 -7.3837,-46.4739 0,-21.28244 2.60601,-38.22152 7.3837,-49.94858 4.77769,-11.72706 12.59573,-18.67642 22.58545,-20.8481 9.98972,-2.17168 17.37342,1.73734 22.58544,11.29272 5.21203,9.55538 7.38371,25.19146 7.38371,46.90823 -0.43434,21.71678 -3.04035,37.78719 -7.81804,49.51425"
   id="path44"
   style="fill:#000000;stroke-width:4.34335" />
<path
   class="st1"
   d="m 1048.9202,288.70487 c -21.2824,-17.37342 -48.6456,-22.58545 -82.08942,-15.63608 -33.00949,6.51503 -62.10997,25.19146 -81.22073,52.5546 -20.84811,28.66614 -31.70649,63.41298 -30.83782,99.02849 0,36.48418 9.98971,64.28165 29.53481,83.82674 19.5451,19.5451 46.90823,25.19146 82.08941,18.24209 33.44385,-6.51503 63.41295,-25.62579 83.39245,-53.42326 20.8481,-28.66614 31.2721,-62.97865 30.8378,-98.59416 0.4343,-39.95886 -10.4241,-68.625 -31.7065,-85.99842 m -59.06964,153.75476 c -4.77769,11.72706 -12.59573,18.67643 -22.58544,20.8481 -9.12105,2.60602 -18.67643,-2.60601 -22.15111,-11.29272 -5.21203,-9.55538 -7.3837,-25.19146 -7.3837,-46.03956 0,-20.8481 2.60601,-38.22152 7.3837,-49.94858 4.77769,-11.72706 12.59573,-18.67643 22.58544,-20.8481 9.98972,-2.17168 17.37342,1.73734 22.58545,11.29272 5.212,9.55538 7.3837,25.19146 7.3837,46.90823 0,21.71677 -2.606,37.35285 -7.81804,49.07991"
   id="path46"
   style="fill:#000000;stroke-width:4.34335" />
<path
   class="st1"
   d="m 446.49688,524.98337 c -4.34336,-19.5451 -16.50475,-37.78719 -33.87817,-42.99921 29.96915,-16.07041 54.29193,-42.99921 54.29193,-94.2508 0,-25.19146 -11.29272,-52.12026 -27.79747,-62.54431 -16.50475,-10.42405 -35.61551,-12.16139 -71.23102,-3.90902 0,0 -92.51345,19.97943 -125.52295,25.62579 6.94937,0.86868 8.68671,4.77769 9.12104,12.59573 0.43434,7.81804 0,307.50952 0,307.50952 l 44.30222,-8.68671 c 20.41377,-4.77769 36.04985,-12.16139 36.91852,-46.90823 l -0.43434,-93.81646 7.38371,-1.73734 c 10.42405,-2.17168 26.06013,-3.04035 33.44383,20.41376 3.47468,12.1614 9.12104,49.94858 12.59573,73.83704 3.47468,23.88845 19.97943,25.19145 32.14082,23.01978 12.1614,-2.17168 59.50396,-11.72706 63.84732,-13.03007 -21.71677,-4.77769 -29.53481,-68.19067 -35.18117,-95.11947 m -69.92802,-85.56409 c -6.94936,8.68671 -16.50475,14.33307 -27.36313,16.07041 l -16.50475,3.47469 0.43433,-69.49368 20.41377,-3.90902 c 11.29272,-2.17168 19.5451,-1.303 24.75712,3.04035 5.21203,4.34336 8.25238,11.72706 8.25238,22.58545 -0.43434,9.98971 -3.90902,19.97943 -9.98972,28.2318"
   id="path48"
   style="fill:#000000;stroke-width:4.34335" />
<path
   class="st2"
   d="m 483.41539,194.88841 v 0 c -0.43433,-0.43434 -0.86867,-0.86868 -0.86867,-0.86868 C 468.64798,180.98967 446.49688,180.121 446.49688,180.121 432.59814,178.81799 418.26507,178.81799 404.36633,180.98967 188.06726,200.9691 0,391.64238 0,620.97151 0,648.33465 5.212026,695.67722 8.68671,720 l 5.212025,-1.303 c -1.737342,-13.89874 -3.909019,-44.73656 -3.909019,-59.06963 0,-217.16774 178.077544,-394.81095 391.770604,-394.81095 14.33307,0 43.43355,2.17168 53.42326,1.73734 h 0.43434 c 22.58545,-0.86867 40.3932,-19.11076 40.3932,-41.69621 0.43434,-11.29272 -3.90902,-22.15111 -12.59573,-29.96914 0.43434,0 0,0 0,0"
   id="path50"
   style="stroke-width:4.34335" />
<path
   class="st0"
   d="m 549.86872,82.829848 c -13.4644,-4.343355 -38.22152,-6.515032 -54.29194,-6.515032 -156.36077,0 -297.5198,69.493684 -389.16459,177.643214 -32.575158,38.65586 -59.503958,82.95808 -83.392409,145.06805 l 8.686709,-2.17168 c 21.282439,-42.99921 49.948581,-82.0894 84.26108,-115.53323 84.26109,-80.7864 197.18831,-125.08862 314.02456,-123.35128 21.28244,0.86867 42.13054,2.60601 62.97864,5.64636 17.37342,2.17168 33.0095,5.21203 41.26187,5.64636 v 0 c 0.86867,0 1.73734,0 2.60602,0 24.32278,0 44.30221,-19.54509 44.30221,-44.30222 0,-19.11076 -12.59572,-36.484183 -31.27215,-42.130542"
   id="path52"
   style="stroke-width:4.34335" />
<path
   class="st3"
   d="m 314.02455,81.526842 c 25.19146,-6.949368 63.41298,-12.161394 83.39242,-16.070413 17.80775,-3.040348 29.96914,-19.979432 26.9288,-37.787187 C 421.73975,12.901836 409.57836,2.0434488 394.81095,0.30610679 383.51823,-0.99690021 367.01348,2.0434488 350.0744,5.9524678 320.97392,12.901836 293.17645,24.194558 267.55066,38.961964 180.24922,91.082227 144.63372,151.88919 120.74526,194.88841 l 8.25238,-0.43434 c 51.68592,-53.8576 109.0182,-91.64479 185.02691,-112.927228"
   id="path54"
   style="stroke-width:4.34335" />
<metadata
   id="metadata876"><rdf:RDF><cc:Work
       rdf:about=""><dc:title>Mesa de trabajo 1</dc:title></cc:Work></rdf:RDF></metadata></svg>
